<?xml version="1.0" encoding="UTF-8"?>
<!DOCTYPE svg PUBLIC "-//W3C//DTD SVG 1.1//EN" "http://www.w3.org/Graphics/SVG/1.1/DTD/svg11.dtd">
<!-- Creator: CorelDRAW 2019 (64 Bit) -->
<svg xmlns="http://www.w3.org/2000/svg" xml:space="preserve" width="108.03mm" height="108.031mm" version="1.1" style="shape-rendering:geometricPrecision; text-rendering:geometricPrecision; image-rendering:optimizeQuality; fill-rule:evenodd; clip-rule:evenodd"
viewBox="0 0 107632.07 107632.77"
 xmlns:xlink="http://www.w3.org/1999/xlink"
 xmlns:xodm="http://www.corel.com/coreldraw/odm/2003">
 <defs>
  <style type="text/css">
   <![CDATA[
    .fil1 {fill:#EFC15B;fill-rule:nonzero}
    .fil0 {fill:#FFD160;fill-rule:nonzero}
    .fil2 {fill:white;fill-rule:nonzero}
   ]]>
  </style>
 </defs>
 <g id="__x0023_Layer_x0020_1">
  <metadata id="CorelCorpID_0Corel-Layer"/>
  <g id="_2317627343168">
   <g>
    <g>
     <path class="fil0" d="M107632.07 53816.58c0,29721.43 -24094.05,53816.19 -53815.89,53816.19 -29721.43,0 -53816.19,-24094.75 -53816.19,-53816.19 0,-29721.83 24094.75,-53815.89 53816.19,-53815.89 29721.83,0 53815.89,24094.05 53815.89,53815.89z"/>
    </g>
    <g>
     <g>
      <path class="fil1" d="M53816.19 0l0 107632.07c29721.83,0 53815.89,-24094.05 53815.89,-53815.79 0,-29721.53 -24094.05,-53816.29 -53815.89,-53816.29z"/>
     </g>
    </g>
   </g>
   <path class="fil2" d="M81415.47 38665.64c-1433.1,-3107.7 -3412.57,-5737.27 -5931.95,-7888.02 -2519.68,-2151.74 -5496.26,-3800.64 -8927.27,-4952.97 -3431.4,-1149.75 -7147.65,-1726.11 -11143.67,-1726.11 -4214.61,0 -8211.92,728.01 -11991.43,2182.03 -3778.62,1457.31 -7102.22,3531.23 -9970.01,6223.57 -2867.49,2696.12 -5149.65,5956.26 -6842.88,9776.53 -1695.93,3824.35 -2541.99,8104.22 -2541.99,12840.59 0,4646.81 736.87,8743.35 2213.51,12283.45 1478.03,3540.9 3531.33,6505.83 6160.81,8896.48 2627.88,2388.96 5732.09,4190.6 9317.63,5408.79 3584.04,1214.31 7484.01,1824.25 11698.62,1824.25 2389.26,0 4505.03,-174.65 6353.69,-523.06 1845.97,-346.72 3658.96,-954.17 5441.07,-1822.96 0,0 1254.86,-1787.19 539.21,-3796.25 -715.25,-2007.87 -2558.14,-2460.99 -2558.14,-2460.99 -1304.27,607.85 -2759.29,1065.06 -4366.74,1370.23 -1608.35,302.38 -3041.75,453.02 -4300.09,453.02 -3738.57,0 -7052.51,-510.01 -9941.52,-1530.14 -2887.42,-1020.82 -5309.65,-2475.44 -7264.72,-4364.25 -1955.07,-1892 -3443.36,-4181.03 -4464.88,-6877.16 -1020.03,-2694.13 -1529.44,-5733.89 -1529.44,-9124.04 0,-3433.7 606.85,-6615.92 1824.35,-9546.88 1215.4,-2933.25 2899.67,-5463.68 5050.41,-7593.5 2151.74,-2127.33 4682.08,-3799.24 7592.81,-5018.13 2910.33,-1217.5 6060.18,-1825.65 9448.34,-1825.65 2955.27,0 5713.86,349.71 8276.48,1044.83 2564.01,695.03 4791.97,1791.37 6682.58,3292.02 1887.52,1497.86 3376.81,3400.82 4463.49,5702.9 1083.29,2301.39 1629.67,5082.99 1629.67,8341.04 0,2259.94 -272.89,4216.4 -815.18,5866 -542.99,1650.89 -1249.08,3018.43 -2118.76,4104.41 -871.58,1086.68 -1847.07,1889.21 -2933.75,2410.98 -1086.28,521.67 -2194.28,782.21 -3323.2,782.21 -1127.93,0 -1855.24,-457.21 -2183.72,-1367.14 -325.4,-913.02 -314.74,-2391.65 35.07,-4432.6l3127.23 -17661.35 -4563.42 0 -2017.83 2086.58c-869.78,-739.76 -1824.75,-1335.96 -2868.09,-1793.17 -1042.14,-456.11 -2325.79,-682.97 -3845.37,-682.97 -2212.91,0 -4310.05,597.19 -6287.14,1790.67 -1976.99,1196.17 -3716.25,2770.25 -5214.11,4723.92 -1497.86,1955.46 -2682.38,4203.35 -3551.86,6745.74 -868.79,2542.69 -1302.58,5160.31 -1302.58,7852.94 0,1433.4 205.24,2737.37 619.21,3909.83 411.88,1175.65 965.13,2174.45 1661.55,2998.61 694.43,825.15 1520.57,1466.97 2477.53,1924.18 954.87,453.72 1955.17,682.67 2997.21,682.67 1303.98,0 2497.06,-198.07 3584.74,-587.23 1085.38,-390.26 2085.88,-922.99 2997.91,-1596.09 912.32,-673.81 1748.83,-1445.75 2509.71,-2314.44 759.59,-867.79 1464.28,-1758.39 2116.47,-2670.82l261.23 0c-132.51,1348.31 -43.34,2476.14 260.44,3387.77 303.48,913.42 770.65,1650.99 1401.12,2217 628.87,565.01 1411.38,965.53 2344.72,1204.84 935.64,240.21 1944.11,358.97 3030.79,358.97 2606.56,0 5052.11,-521.67 7332.27,-1563.81 2280.46,-1043.04 4276.78,-2454.82 5995.32,-4235.23 1715.95,-1781.01 3061.77,-3888.21 4039.95,-6321.41 978.58,-2436.29 1465.68,-5040.85 1465.68,-7822.46 0,-3953.07 -717.74,-7483.31 -2151.04,-10588.22zm-23590.62 17173.36l0 0c-480.12,868.69 -1021.82,1693.83 -1630.67,2476.74 -609.25,780.91 -1238.82,1477.33 -1889.21,2084.19 -653.48,608.55 -1325.89,1096.94 -2022.42,1467.67 -693.33,369.03 -1347.22,552.66 -1955.07,552.66 -1433.7,0 -2442.86,-456.51 -3028.69,-1367.14 -588.32,-913.02 -881.14,-2086.58 -881.14,-3522.67 0,-1387.07 218.69,-2809.8 652.49,-4268.91 434.89,-1451.53 1052.41,-2768.16 1858.03,-3940.72 802.83,-1174.85 1760.49,-2129.12 2868.09,-2866.39 1108,-739.36 2312.44,-1109 3614.93,-1109 913.42,0 1674.01,130.12 2281.56,391.25 608.25,260.54 1194.48,628.87 1759.09,1108l-1626.98 8994.32z"/>
  </g>
 </g>
</svg>
