<?xml version="1.0" encoding="UTF-8"?>
<!DOCTYPE svg PUBLIC "-//W3C//DTD SVG 1.1//EN" "http://www.w3.org/Graphics/SVG/1.1/DTD/svg11.dtd">
<!-- Creator: CorelDRAW 2019 (64 Bit) -->
<svg xmlns="http://www.w3.org/2000/svg" xml:space="preserve" width="79.2868mm" height="79.2868mm" version="1.1" style="shape-rendering:geometricPrecision; text-rendering:geometricPrecision; image-rendering:optimizeQuality; fill-rule:evenodd; clip-rule:evenodd"
viewBox="0 0 22960.65 22960.65"
 xmlns:xlink="http://www.w3.org/1999/xlink"
 xmlns:xodm="http://www.corel.com/coreldraw/odm/2003">
 <defs>
  <style type="text/css">
   <![CDATA[
    .fil1 {fill:#FEFEFE;fill-rule:nonzero}
    .fil0 {fill:#415C9A;fill-rule:nonzero}
   ]]>
  </style>
 </defs>
 <g id="Camada_x0020_1">
  <metadata id="CorelCorpID_0Corel-Layer"/>
  <path class="fil0" d="M22960.65 11480.53c0,-6340.63 -5140.13,-11480.53 -11480.33,-11480.53 -6340.42,0 -11480.33,5139.9 -11480.33,11480.53 0,6340.19 5139.9,11480.12 11480.33,11480.12 32.9,0 65.27,-2.26 98.26,-2.26l0 -8009.01 -2764.16 0 0 -3201.3 2764.16 0 0 -2360.53c0,-2739.64 1673.19,-4231.4 4116.69,-4231.4 1170.84,0 2176.93,87.25 2470.14,126.06l0 2863.17 -1695.06 0.72c-1329.01,0 -1586.14,631.45 -1586.14,1558.14l0 2043.84 3169.73 0 -412.84 3201.3 -2756.9 0 0 7498.12c4678.24,-1450.58 8076.43,-5811.84 8076.43,-10966.97z"/>
  <path class="fil1" d="M17641.12 14949.38l412.84 -3201.3 -3169.73 0 0 -2043.84c0,-926.69 257.13,-1558.14 1586.14,-1558.14l1695.06 -0.72 0 -2863.17c-293.21,-38.81 -1299.3,-126.06 -2470.14,-126.06 -2443.5,0 -4116.69,1491.76 -4116.69,4231.4l0 2360.53 -2764.16 0 0 3201.3 2764.16 0 0 8009.01c1150.02,-9.82 2260.02,-186.84 3305.64,-510.89l0 -7498.12 2756.9 0z"/>
 </g>
</svg>
