<?xml version="1.0" encoding="UTF-8"?>
<!DOCTYPE svg PUBLIC "-//W3C//DTD SVG 1.1//EN" "http://www.w3.org/Graphics/SVG/1.1/DTD/svg11.dtd">
<!-- Creator: CorelDRAW 2019 (64 Bit) -->
<svg xmlns="http://www.w3.org/2000/svg" xml:space="preserve" width="108.03mm" height="108.03mm" version="1.1" style="shape-rendering:geometricPrecision; text-rendering:geometricPrecision; image-rendering:optimizeQuality; fill-rule:evenodd; clip-rule:evenodd"
viewBox="0 0 27322.02 27321.99"
 xmlns:xlink="http://www.w3.org/1999/xlink"
 xmlns:xodm="http://www.corel.com/coreldraw/odm/2003">
 <defs>
  <style type="text/css">
   <![CDATA[
    .fil0 {fill:#63B2D0;fill-rule:nonzero}
   ]]>
  </style>
 </defs>
 <g id="__x0023_Layer_x0020_1">
  <metadata id="CorelCorpID_0Corel-Layer"/>
  <g id="_2317623574688">
   <path class="fil0" d="M27322.02 13661c0,7544.76 -6116.27,13661 -13660.97,13661 -7544.76,0 -13661.05,-6116.24 -13661.05,-13661 0,-7544.78 6116.29,-13661 13661.05,-13661 7544.71,0 13660.97,6116.22 13660.97,13661zm-6423.98 4398.98l-2340.23 -2340.71c-465.89,-463.96 -1238.2,-449.9 -1720.48,32.42l-1178.87 1179.09c-74.58,-41.35 -151.44,-84.32 -232.73,-129.74 -744.34,-412.52 -1763.52,-977.73 -2835.99,-2051.06 -1075.2,-1075.35 -1641.37,-2095.92 -2055.05,-2840.92 -43.83,-78.98 -85.66,-155.03 -126.78,-227.32l791.33 -790.12 388.85 -389.58c483.14,-483.24 496.46,-1254.84 31.36,-1720.55l-2340.31 -2340.71c-464.85,-464.88 -1237.16,-450.81 -1720.4,32.4l-659.57 663.36 18.21 17.96c-221.12,282.17 -406.2,607.69 -543.51,958.58 -126.86,334.15 -205.89,652.94 -241.96,972.42 -308.8,2561.83 861.79,4903.15 4038.73,8080.22 4391.62,4391.36 7930.67,4059.57 8083.43,4043.46 332.48,-39.78 651.12,-119.2 974.97,-244.97 348.26,-136.29 673.43,-320.51 955.29,-541.18l14.39 12.77 668.19 -654.36c482.35,-483.29 495.86,-1255.02 31.11,-1721.46z"/>
   <path class="fil0" d="M13661.05 0l0 15685.98c665.21,505.52 1274.54,843.41 1764.68,1115.06 81.29,45.42 158.15,88.39 232.73,129.74l1178.87 -1179.09c482.28,-482.33 1254.59,-496.39 1720.48,-32.42l2340.23 2340.71c464.75,466.44 451.24,1238.17 -31.11,1721.46l-668.19 654.36 -14.39 -12.77c-281.87,220.66 -607.04,404.88 -955.29,541.18 -323.85,125.77 -642.49,205.19 -974.97,244.97 -109.18,11.51 -1948.83,183.87 -4593.04,-1322.32l0 7435.14c7544.88,0 13660.97,-6116.24 13660.97,-13661 0,-7544.78 -6116.09,-13661 -13660.97,-13661z"/>
  </g>
 </g>
</svg>
