<?xml version="1.0" encoding="UTF-8"?>
<!DOCTYPE svg PUBLIC "-//W3C//DTD SVG 1.1//EN" "http://www.w3.org/Graphics/SVG/1.1/DTD/svg11.dtd">
<!-- Creator: CorelDRAW 2019 (64 Bit) -->
<svg xmlns="http://www.w3.org/2000/svg" xml:space="preserve" width="108.03mm" height="108.03mm" version="1.1" style="shape-rendering:geometricPrecision; text-rendering:geometricPrecision; image-rendering:optimizeQuality; fill-rule:evenodd; clip-rule:evenodd"
viewBox="0 0 2400.69 2400.69"
 xmlns:xlink="http://www.w3.org/1999/xlink"
 xmlns:xodm="http://www.corel.com/coreldraw/odm/2003">
 <defs>
  <style type="text/css">
   <![CDATA[
    .fil0 {fill:#DEDFD5}
    .fil1 {fill:#4A4B4D}
   ]]>
  </style>
 </defs>
 <g id="Camada_x0020_1">
  <metadata id="CorelCorpID_0Corel-Layer"/>
  <path class="fil0" d="M1200.5 0c662.88,0 1200.18,537.59 1200.18,1200.22 0,662.88 -537.3,1200.48 -1200.18,1200.48 -662.91,0 -1200.5,-537.6 -1200.5,-1200.48 0,-662.62 537.59,-1200.22 1200.5,-1200.22z"/>
  <path class="fil1" d="M790.93 652.12l0 0c17.61,0 32.12,19.12 32.12,42.27l0 279.92 351.22 -372.21c6.78,-9.22 17.27,-13.58 27.76,-13.58 7.09,0 14.22,4.36 20.99,13.58 205.49,215.41 348.42,366.64 578.66,614.15 13.87,13.9 13.87,41.37 0,54.96 -6.78,4.61 -13.9,9.25 -24.4,9.25 -10.49,0 -20.99,-4.64 -24.36,-9.25l-550.89 -591 -554.26 581.71c-13.9,18.54 -34.86,18.54 -48.76,0 -7.12,-4.3 -10.49,-13.58 -10.49,-22.84 0,-8.94 3.37,-18.22 10.49,-27.45l159.53 -169.14 0 -348.1c0,-23.15 14.54,-42.27 32.38,-42.27zm819.1 536.65c-20.99,0 -34.89,13.89 -34.89,36.73l0 508.62 -251.2 0 0 -206.16c0,-18.22 -13.9,-36.74 -31.2,-36.74l-181.13 0c-20.96,0 -38.58,18.51 -38.58,36.74l0 206.16 -247.5 0 0 -490.4c0,-22.86 -17.27,-36.74 -34.88,-36.74 -20.97,0 -34.86,13.87 -34.86,36.74l0 531.72c0,18.22 13.89,36.73 34.86,36.73l320.97 0c17.3,0 31.2,-18.51 31.2,-36.73l0 -210.78 111.67 0 0 210.78c0,18.22 17.3,36.73 38.26,36.73l317.28 0c17.27,0 34.86,-18.51 34.86,-36.73l0 -549.94c0,-22.84 -17.59,-36.73 -34.86,-36.73z"/>
 </g>
</svg>
