<svg height="512pt" viewBox="0 0 512 512" width="512pt" xmlns="http://www.w3.org/2000/svg"><path d="m485.515625 93.792969v56.277343h-459.03125v-56.277343c-.59375-20.105469 15.207031-36.890625 35.308594-37.515625h44.636719c7.363281-.097656 14.339843-3.3125 19.199218-8.847656 25.734375-28.316407 74.484375-47.429688 130.371094-47.429688 55.90625 0 104.667969 19.125 130.464844 47.457031 4.851562 5.519531 11.820312 8.726563 19.171875 8.820313h44.570312c20.101563.625 35.902344 17.410156 35.308594 37.515625zm0 0" fill="#c03a2b"/><path d="m459.035156 97.308594v52.761718h-406.070312v-52.761718c-1.019532-18.3125 12.929687-34.019532 31.238281-35.171875h39.484375c6.605469-.128907 12.816406-3.164063 16.984375-8.289063 22.765625-26.550781 65.894531-44.46875 115.328125-44.46875 49.453125 0 92.589844 17.929688 115.410156 44.492188 4.164063 5.113281 10.367188 8.136718 16.960938 8.265625h39.425781c18.308594 1.152343 32.257813 16.859375 31.238281 35.171875zm0 0" fill="#e64c3c"/><path d="m207.449219 105.929688c-14.472657.050781-27.042969-9.953126-30.238281-24.070313-3.195313-14.113281 3.832031-28.558594 16.914062-34.75s28.707031-2.472656 37.597656 8.945313c5.8125-7.515626 14.777344-11.917969 24.277344-11.917969s18.464844 4.402343 24.277344 11.917969c8.894531-11.375 24.488281-15.058594 37.535156-8.871094 13.042969 6.1875 20.054688 20.59375 16.878906 34.679687-3.179687 14.085938-15.699218 24.082031-30.140625 24.066407zm0 0" fill="#f9eab0"/><path d="m229.070312 52.964844c4.847657 4.738281 7.996094 10.945312 8.960938 17.65625" fill="#f9eab0"/><path d="m277.519531 52.964844c4.847657 4.738281 7.996094 10.945312 8.960938 17.65625" fill="#f9eab0"/><g fill="#f3d55b"><path d="m304.550781 114.757812h-97.101562c-21.941407 0-39.726563-17.785156-39.726563-39.722656 0-21.941406 17.785156-39.726562 39.726563-39.726562 8.796875-.015625 17.34375 2.917968 24.273437 8.335937 14.402344-10.738281 34.152344-10.738281 48.554688 0 6.929687-5.417969 15.476562-8.351562 24.273437-8.335937 21.941407 0 39.726563 17.785156 39.726563 39.726562 0 21.9375-17.785156 39.722656-39.726563 39.722656zm-97.101562-61.792968c-12.1875 0-22.070313 9.882812-22.070313 22.070312s9.882813 22.066406 22.070313 22.066406h97.101562c12.1875 0 22.070313-9.878906 22.070313-22.066406s-9.882813-22.070312-22.070313-22.070312c-6.777343-.003906-13.175781 3.144531-17.308593 8.515625-1.738282 2.042969-4.285157 3.222656-6.964844 3.222656-2.683594 0-5.230469-1.179687-6.96875-3.222656-4.136719-5.367188-10.53125-8.515625-17.308594-8.515625s-13.171875 3.148437-17.308594 8.515625c-1.738281 2.042969-4.285156 3.222656-6.96875 3.222656-2.679687 0-5.226562-1.179687-6.964844-3.222656-4.132812-5.371094-10.53125-8.519531-17.308593-8.515625zm0 0"/><path d="m238.027344 79.449219c-4.390625-.003907-8.113282-3.234375-8.734375-7.578125-.695313-4.785156-2.941407-9.214844-6.394531-12.597656-2.359376-2.183594-3.34375-5.472657-2.574219-8.59375.769531-3.117188 3.171875-5.570313 6.273437-6.40625 3.101563-.835938 6.410156.078124 8.644532 2.386718 6.226562 6.101563 10.277343 14.082032 11.535156 22.710938.355468 2.535156-.402344 5.097656-2.082032 7.03125-1.675781 1.933594-4.109374 3.042968-6.667968 3.046875zm0 0"/><path d="m286.472656 79.449219c-4.390625-.003907-8.109375-3.234375-8.730468-7.578125-.695313-4.785156-2.945313-9.214844-6.398438-12.597656-2.355469-2.183594-3.339844-5.472657-2.570312-8.59375.769531-3.117188 3.171874-5.570313 6.273437-6.40625 3.101563-.835938 6.410156.078124 8.644531 2.386718 6.226563 6.101563 10.277344 14.082032 11.53125 22.710938.359375 2.535156-.398437 5.097656-2.078125 7.03125-1.679687 1.933594-4.109375 3.042968-6.671875 3.046875zm0 0"/><path d="m35.308594 185.378906h441.382812v282.484375h-441.382812zm0 0"/></g><path d="m52.964844 185.378906h406.070312v282.484375h-406.070312zm0 0" fill="#f9eab0"/><path d="m97.101562 229.515625h211.863282c4.875 0 8.828125 3.953125 8.828125 8.828125v185.378906h-229.515625v-185.378906c0-4.875 3.949218-8.828125 8.824218-8.828125zm0 0" fill="#90bae1"/><path d="m301.460938 229.515625c-43.960938 25.070313-162.78125 100.722656-176.550782 194.207031h-36.632812v-185.378906c.011718-4.867188 3.957031-8.8125 8.824218-8.828125zm0 0" fill="#b0d3f0"/><path d="m326.621094 432.550781h-247.171875c-4.875 0-8.828125-3.953125-8.828125-8.828125s3.953125-8.824218 8.828125-8.824218h247.171875c4.875 0 8.828125 3.949218 8.828125 8.824218s-3.953125 8.828125-8.828125 8.828125zm0 0" fill="#e64c3c"/><path d="m370.757812 229.515625h105.933594v238.347656h-114.761718v-229.519531c0-4.875 3.953124-8.828125 8.828124-8.828125zm0 0" fill="#e64c3c"/><path d="m423.722656 379.585938h-17.652344c-4.875 0-8.828124-3.953126-8.828124-8.828126s3.953124-8.828124 8.828124-8.828124h17.652344c4.875 0 8.828125 3.953124 8.828125 8.828124s-3.953125 8.828126-8.828125 8.828126zm0 0" fill="#802f34"/><path d="m203.035156 264.828125h51.472656c14.257813-.292969 26.371094 10.363281 27.90625 24.539063.710938 10.054687-4.324218 19.648437-13.007812 24.769531-2.792969 1.5625-4.539062 4.5-4.578125 7.699219v57.75c-.015625 4.871093-3.957031 8.8125-8.828125 8.828124h-52.964844zm0 0" fill="#b19046"/><path d="m22.070312 141.242188h467.859376c12.191406 0 22.070312 9.878906 22.070312 22.066406 0 12.191406-9.878906 22.070312-22.070312 22.070312h-467.859376c-12.191406 0-22.070312-9.878906-22.070312-22.070312 0-12.1875 9.878906-22.066406 22.070312-22.066406zm0 0" fill="#802f34"/><path d="m48.550781 141.242188h414.898438c12.1875 0 22.066406 9.878906 22.066406 22.066406 0 12.191406-9.878906 22.070312-22.066406 22.070312h-414.898438c-12.1875 0-22.066406-9.878906-22.066406-22.070312 0-12.1875 9.878906-22.066406 22.066406-22.066406zm0 0" fill="#cc4b4c"/><path d="m512 476.691406v26.480469c-.015625 4.871094-3.957031 8.8125-8.828125 8.828125h-494.34375c-4.871094-.015625-8.8125-3.957031-8.828125-8.828125v-26.480469c.0273438-9.742187 7.917969-17.628906 17.65625-17.65625h476.6875c9.738281.027344 17.628906 7.914063 17.65625 17.65625zm0 0" fill="#24ae5f"/><path d="m485.515625 476.691406v26.480469c.226563 4.613281-3.300781 8.550781-7.914063 8.828125h-443.203124c-4.613282-.277344-8.140626-4.214844-7.914063-8.828125v-26.480469c-.449219-9.226562 6.605469-17.097656 15.828125-17.65625h427.375c9.222656.558594 16.277344 8.429688 15.828125 17.65625zm0 0" fill="#4fba6f"/><path d="m229.449219 289.367188c.710937 10.054687-4.324219 19.648437-13.007813 24.769531-2.792968 1.566406-4.539062 4.5-4.578125 7.699219v57.75c-.015625 4.871093-3.960937 8.8125-8.828125 8.828124h-52.964844c-4.871093-.015624-8.816406-3.957031-8.828124-8.828124v-57.78125c-.015626-3.167969-1.730469-6.078126-4.492188-7.632813-10.328125-6.023437-15.335938-18.222656-12.222656-29.765625 3.117187-11.546875 13.582031-19.570312 25.542968-19.578125h51.46875c14.257813-.292969 26.375 10.363281 27.910157 24.539063zm0 0" fill="#e4c05c"/><path d="m459.035156 229.515625h17.65625v229.519531h-17.65625zm0 0" fill="#c03a2b"/><path d="m406.070312 264.828125h70.621094v70.621094h-70.621094c-4.875 0-8.828124-3.953125-8.828124-8.828125v-52.964844c0-4.875 3.953124-8.828125 8.828124-8.828125zm0 0" fill="#b0d3f0"/><path d="m459.035156 264.828125h17.65625v70.621094h-17.65625zm0 0" fill="#90bae1"/></svg>