<?xml version="1.0" encoding="UTF-8"?>
<!DOCTYPE svg PUBLIC "-//W3C//DTD SVG 1.1//EN" "http://www.w3.org/Graphics/SVG/1.1/DTD/svg11.dtd">
<!-- Creator: CorelDRAW 2019 (64 Bit) -->
<svg xmlns="http://www.w3.org/2000/svg" xml:space="preserve" width="79.0637mm" height="79.0618mm" version="1.1" style="shape-rendering:geometricPrecision; text-rendering:geometricPrecision; image-rendering:optimizeQuality; fill-rule:evenodd; clip-rule:evenodd"
viewBox="0 0 2752.83 2752.77"
 xmlns:xlink="http://www.w3.org/1999/xlink"
 xmlns:xodm="http://www.corel.com/coreldraw/odm/2003">
 <defs>
  <style type="text/css">
   <![CDATA[
    .fil1 {fill:#FEFEFE;fill-rule:nonzero}
    .fil0 {fill:#00AD59;fill-rule:nonzero}
   ]]>
  </style>
 </defs>
 <g id="Camada_x0020_1">
  <metadata id="CorelCorpID_0Corel-Layer"/>
  <path class="fil0" d="M1376.4 2752.77c-240.92,0 -477.21,-63.71 -686.5,-184.74l-536.26 184.74 110.22 -567.84c-172.79,-236.8 -263.86,-515.33 -263.86,-808.51 0,-758.96 617.46,-1376.41 1376.4,-1376.41 759.04,0 1376.43,617.44 1376.43,1376.41 0,758.93 -617.39,1376.36 -1376.43,1376.36z"/>
  <path class="fil1" d="M944.09 2007.81l27.1 16.96c122.11,76.55 262.25,117.02 405.21,117.02 422.1,0 765.46,-343.36 765.46,-765.43 0,-422.04 -343.36,-765.4 -765.46,-765.4 -422.04,0 -765.39,343.36 -765.39,765.4 0,171.7 56.24,334.42 162.58,470.49l18.8 24.04 -39.35 202.72 191.05 -65.8zm432.31 267.78c-157.37,0 -311.75,-41.66 -448.47,-120.73l-350.34 120.73 71.97 -371.01c-112.84,-154.7 -172.35,-336.65 -172.35,-528.22 0,-495.82 403.37,-899.19 899.19,-899.19 495.85,0 899.22,403.36 899.22,899.19 0,495.84 -403.37,899.22 -899.22,899.22z"/>
  <path class="fil1" d="M922.45 1030.9c0,0 52.79,-92.22 95.78,-97.49 43.02,-5.29 98.4,-5.29 113.31,22.83 14.94,28.09 81.67,191.49 81.67,191.49 0,0 11.46,28.11 -6.11,55.35 -17.56,27.22 -57.09,66.75 -57.09,66.75 0,0 -21.97,28.11 0,57.99 21.96,29.83 56.01,84.74 126.5,155.13 70.37,70.45 205.51,120.68 205.51,120.68 0,0 19.35,2.6 31.67,-9.68 12.26,-12.28 79.05,-95.73 79.05,-95.73 0,0 21.42,-27.65 57.05,-11.41 35.57,16.24 189.71,93.1 189.71,93.1 0,0 18.04,6.57 18.04,33.8 0,27.22 -11.02,93.85 -33.56,116.37 -22.53,22.54 -88.39,91.99 -187.39,91.99 -98.98,0 -334.69,-80.55 -460.29,-206.13 -125.6,-125.64 -237.13,-253.02 -263.46,-368.93 -26.36,-115.96 -22.84,-168.36 9.6,-216.11z"/>
 </g>
</svg>
